<svg width="35" height="59" viewBox="0 0 35 59" fill="none" xmlns="http://www.w3.org/2000/svg">
<path d="M32.5347 37.5282C26.4801 27.1219 27.0704 14.4372 27.0704 14.4372H7.53459C7.53459 14.4372 8.22234 27.122 2.06998 37.5282C11.4454 44.5387 11.0527 58.9999 11.0527 58.9999H14.8273V38.6333C13.1744 37.6405 12.0492 35.6865 12.0492 33.4363C12.0492 30.1818 14.4011 27.5437 17.3026 27.5437C20.2039 27.5437 22.5559 30.1817 22.5559 33.4363C22.5559 35.7918 21.321 37.8181 19.5406 38.7618V59H23.5528C23.5528 59 23.16 44.5388 32.5347 37.5282Z" fill="#0F2167"/>
<path d="M4.36966 0V8.18028H1.17834C0.527559 8.18028 0 8.8027 0 9.57072C0 10.3387 0.527477 10.9612 1.17834 10.9612H32.993C33.6439 10.9612 34.1713 10.3387 34.1713 9.57072C34.1713 8.8027 33.6439 8.18028 32.993 8.18028H29.7526V0H4.36966Z" fill="#0F2167"/>
</svg>
