<svg width="57" height="53" viewBox="0 0 57 53" fill="none" xmlns="http://www.w3.org/2000/svg">
<path d="M54.6206 51.1452C55.0804 51.1452 55.5154 50.9408 55.805 50.5879C56.0945 50.2353 56.2074 49.7726 56.1124 49.3286L55.1523 44.8424C55.6991 44.3201 56.0428 43.5909 56.0428 42.7801C56.0428 41.9266 55.6578 41.1696 55.0602 40.6436V25.0645L51.2111 27.4162V40.6436C50.6135 41.1696 50.2283 41.9266 50.2283 42.7801C50.2283 43.591 50.5722 44.3203 51.119 44.8424L50.1587 49.3286C50.0637 49.7727 50.1768 50.2354 50.4662 50.5879C50.7557 50.9406 51.1907 51.1452 51.6505 51.1452H54.6206ZM55.9253 15.9736L30.885 0.669869C30.1516 0.223884 29.3249 0 28.4982 0C27.6715 0 26.8443 0.223696 26.1154 0.669869L1.07473 15.9736C0.406097 16.382 0 17.1035 0 17.88C0 18.6566 0.406096 19.3783 1.07473 19.7874L26.1152 35.0912C26.8441 35.5377 27.6714 35.7611 28.4981 35.7611C29.3248 35.7611 30.1516 35.5374 30.8849 35.0912L55.9253 19.7874C56.5939 19.3785 57 18.6566 57 17.88C57 17.1035 56.5939 16.3818 55.9253 15.9736ZM28.4981 39.561C26.9383 39.561 25.416 39.1333 24.089 38.3225L9.48272 29.3949V44.7673C9.48272 49.317 18.0002 53 28.4981 53C38.9998 53 47.5166 49.3169 47.5166 44.7673V29.3949L32.9109 38.3225C31.5839 39.1333 30.0579 39.561 28.4981 39.561Z" fill="white"/>
</svg>
