<svg width="75" height="75" viewBox="0 0 75 75" fill="none" xmlns="http://www.w3.org/2000/svg">
<path d="M60.6841 26.4659V24.5268C60.6841 22.8657 60.0243 21.2726 58.8496 20.0979C57.675 18.9233 56.0819 18.2634 54.4207 18.2634H20.5793C18.9181 18.2634 17.325 18.9233 16.1504 20.0979C14.9758 21.2726 14.3159 22.8657 14.3159 24.5268V26.4659C14.3159 26.6609 14.3933 26.8479 14.5312 26.9858C14.6691 27.1238 14.8562 27.2012 15.0512 27.2012H59.9488C60.1438 27.2012 60.3309 27.1238 60.4688 26.9858C60.6067 26.8479 60.6841 26.6609 60.6841 26.4659Z" fill="#0F2167"/>
<path d="M14.3159 31.2293V50.4732C14.3159 52.1343 14.9758 53.7275 16.1504 54.9021C17.325 56.0767 18.9181 56.7366 20.5793 56.7366H54.4207C56.0819 56.7366 57.675 56.0767 58.8496 54.9021C60.0243 53.7275 60.6841 52.1343 60.6841 50.4732V31.2293C60.6841 31.0342 60.6067 30.8472 60.4688 30.7093C60.3309 30.5714 60.1438 30.4939 59.9488 30.4939H15.0512C14.8562 30.4939 14.6691 30.5714 14.5312 30.7093C14.3933 30.8472 14.3159 31.0342 14.3159 31.2293Z" fill="#0F2167"/>
<path d="M20.4585 24.2488C21.2405 24.2488 21.8744 23.6149 21.8744 22.8329C21.8744 22.051 21.2405 21.4171 20.4585 21.4171C19.6766 21.4171 19.0427 22.051 19.0427 22.8329C19.0427 23.6149 19.6766 24.2488 20.4585 24.2488Z" fill="white"/>
<path d="M24.8232 24.2488C25.6052 24.2488 26.2391 23.6149 26.2391 22.8329C26.2391 22.051 25.6052 21.4171 24.8232 21.4171C24.0412 21.4171 23.4073 22.051 23.4073 22.8329C23.4073 23.6149 24.0412 24.2488 24.8232 24.2488Z" fill="white"/>
<path d="M29.1878 24.2488C29.9698 24.2488 30.6037 23.6149 30.6037 22.8329C30.6037 22.051 29.9698 21.4171 29.1878 21.4171C28.4059 21.4171 27.772 22.051 27.772 22.8329C27.772 23.6149 28.4059 24.2488 29.1878 24.2488Z" fill="white"/>
</svg>
